<svg width="29" height="20" viewBox="0 0 29 20" fill="none" xmlns="http://www.w3.org/2000/svg">
<path d="M19.7132 8.67723C21.7882 8.67723 23.4507 6.90474 23.4507 4.70898C23.4507 2.51321 21.7882 0.740723 19.7132 0.740723C17.6382 0.740723 15.9632 2.51321 15.9632 4.70898C15.9632 6.90474 17.6382 8.67723 19.7132 8.67723ZM9.7132 8.67723C11.7882 8.67723 13.4507 6.90474 13.4507 4.70898C13.4507 2.51321 11.7882 0.740723 9.7132 0.740723C7.6382 0.740723 5.9632 2.51321 5.9632 4.70898C5.9632 6.90474 7.6382 8.67723 9.7132 8.67723ZM9.7132 11.3227C6.8007 11.3227 0.963196 12.8704 0.963196 15.9524V19.2592H18.4632V15.9524C18.4632 12.8704 12.6257 11.3227 9.7132 11.3227ZM19.7132 11.3227C19.3507 11.3227 18.9382 11.3492 18.5007 11.3889C19.9507 12.5 20.9632 13.9947 20.9632 15.9524V19.2592H28.4632V15.9524C28.4632 12.8704 22.6257 11.3227 19.7132 11.3227Z" fill="#1CABE3"/>
</svg>
